<svg width="22" height="10" viewBox="0 0 22 10" fill="none" xmlns="http://www.w3.org/2000/svg">
<path d="M7.12107 2.879L9.20407 4.962L9.21107 4.956L10.6631 6.408L10.6691 6.414L12.7911 8.536C13.4904 9.23513 14.3813 9.7112 15.3512 9.90402C16.321 10.0968 17.3263 9.99775 18.2399 9.61927C19.1534 9.2408 19.9342 8.59993 20.4836 7.77772C21.0329 6.9555 21.3261 5.98885 21.3261 5C21.3261 4.01115 21.0329 3.04451 20.4836 2.22229C19.9342 1.40007 19.1534 0.759207 18.2399 0.38073C17.3263 0.00225353 16.321 -0.0968397 15.3512 0.0959795C14.3813 0.288799 13.4904 0.764871 12.7911 1.464L12.0771 2.178L13.4921 3.592L14.2051 2.879C14.6246 2.45935 15.1591 2.17354 15.7411 2.05771C16.3231 1.94188 16.9263 2.00124 17.4745 2.22828C18.0228 2.45531 18.4914 2.83983 18.8211 3.3332C19.1507 3.82656 19.3267 4.40662 19.3267 5C19.3267 5.59338 19.1507 6.17344 18.8211 6.66681C18.4914 7.16017 18.0228 7.54469 17.4745 7.77173C16.9263 7.99876 16.3231 8.05812 15.7411 7.94229C15.1591 7.82646 14.6246 7.54065 14.2051 7.121L12.1331 5.049L12.1261 5.055L8.53607 1.465C7.83687 0.765589 6.94595 0.289235 5.97601 0.0961865C5.00606 -0.096862 4.00065 0.00206628 3.08693 0.38046C2.17321 0.758854 1.39223 1.39972 0.842757 2.22199C0.293283 3.04427 0 4.01103 0 5C0 5.98897 0.293283 6.95573 0.842757 7.77801C1.39223 8.60029 2.17321 9.24115 3.08693 9.61954C4.00065 9.99794 5.00606 10.0969 5.97601 9.90382C6.94595 9.71077 7.83687 9.23442 8.53607 8.535L9.24907 7.822L7.83507 6.408L7.12107 7.121C6.70155 7.54065 6.167 7.82646 5.58503 7.94229C5.00306 8.05812 4.39982 7.99876 3.85159 7.77173C3.30335 7.54469 2.83477 7.16017 2.50508 6.66681C2.1754 6.17344 1.99943 5.59338 1.99943 5C1.99943 4.40662 2.1754 3.82656 2.50508 3.3332C2.83477 2.83983 3.30335 2.45531 3.85159 2.22828C4.39982 2.00124 5.00306 1.94188 5.58503 2.05771C6.167 2.17354 6.70155 2.45935 7.12107 2.879V2.879Z" fill="white"/>
</svg>
