<svg width="79" height="79" viewBox="0 0 79 79" fill="none" xmlns="http://www.w3.org/2000/svg">
<path d="M73.165 18.5156H55.5469V6.17188H50.6094V18.5156H30.8594V23.4531H33.6244L34.5739 30.8594H17.2812C14.0086 30.8631 10.8711 32.1648 8.557 34.4789C6.24291 36.793 4.94122 39.9305 4.9375 43.2031V45.6719H48.1406V43.2031C48.1427 41.3404 47.7206 39.5018 46.9062 37.8265C46.1812 36.3337 45.1635 35.002 43.9136 33.9103C42.6637 32.8186 41.2071 31.9894 39.6304 31.4718L38.6025 23.4531H67.5538L62.0145 66.6562H4.9375V71.5938H66.36L72.5319 23.4531H76.5312V18.5156H73.165ZM42.78 40.7344H10.2981C10.8102 39.2914 11.7564 38.0422 13.0066 37.1582C14.2569 36.2741 15.75 35.7986 17.2812 35.7969H35.7969C37.3281 35.7986 38.8212 36.2741 40.0715 37.1582C41.3218 38.0422 42.2679 39.2914 42.78 40.7344Z" fill="white"/>
<path d="M46.9062 54.3125H48.1406V49.375H4.9375V54.3125H46.9062ZM46.9062 62.9531H48.1406V58.0156H4.9375V62.9531H46.9062Z" fill="white"/>
</svg>
